<?xml version="1.0" standalone="no"?>
<!DOCTYPE svg PUBLIC "-//W3C//DTD SVG 20010904//EN"
 "http://www.w3.org/TR/2001/REC-SVG-20010904/DTD/svg10.dtd">
<svg version="1.0" xmlns="http://www.w3.org/2000/svg"
 width="1024.000000pt" height="1024.000000pt" viewBox="0 0 1024.000000 1024.000000"
 preserveAspectRatio="xMidYMid meet">

<g transform="translate(0.000000,1024.000000) scale(0.100000,-0.100000)"
fill="#000000" stroke="none">
<path d="M4590 6850 l0 -200 -315 0 -315 0 0 -110 0 -110 300 0 c170 0 300 -4
300 -9 0 -5 -9 -38 -20 -74 -82 -266 -262 -477 -520 -607 -36 -19 -67 -35 -69
-36 -5 -5 15 -32 86 -112 l62 -71 82 49 c115 70 176 119 274 221 91 96 170
215 213 321 15 37 29 68 32 68 3 0 17 -33 32 -73 58 -155 206 -338 358 -446
73 -51 199 -121 220 -121 5 0 41 39 79 87 l68 87 -106 52 c-182 90 -323 223
-417 391 -32 57 -104 239 -104 263 0 6 117 10 305 10 l305 0 0 110 0 110 -320
0 -321 0 3 200 3 200 -107 0 -108 0 0 -200z"/>
<path d="M5920 6860 l0 -190 -95 0 -95 0 0 -96 0 -95 93 2 92 2 3 -259 2 -259
-105 -29 c-58 -16 -105 -34 -105 -40 0 -6 14 -53 32 -104 25 -73 35 -91 48
-86 8 3 134 46 280 96 145 49 265 90 266 91 1 1 -8 45 -19 98 l-22 96 -67 -23
c-36 -12 -76 -25 -87 -29 -21 -6 -21 -5 -21 219 l0 226 90 0 90 0 0 95 0 95
-90 0 -90 0 0 190 0 190 -100 0 -100 0 0 -190z"/>
<path d="M8050 6935 l0 -115 -310 0 -310 0 0 -95 0 -95 310 0 310 0 0 -70 0
-70 -252 0 -253 0 3 -395 2 -395 100 0 100 0 0 300 0 300 150 0 150 0 0 -385
0 -385 100 0 100 0 0 385 0 385 160 0 160 0 0 -191 c0 -112 -4 -198 -10 -210
-9 -16 -22 -19 -90 -19 -44 0 -80 -3 -80 -7 0 -5 7 -30 15 -58 9 -27 20 -67
26 -89 l10 -38 112 4 c128 5 178 22 205 72 15 27 17 73 20 379 l3 347 -266 0
-265 0 0 70 0 70 325 0 325 0 0 95 0 95 -326 0 -325 0 3 115 3 115 -102 0
-103 0 0 -115z"/>
<path d="M6360 6929 l0 -89 433 0 432 0 -3 90 -3 90 -430 -1 -429 -1 0 -89z"/>
<path d="M1335 6955 c-16 -8 -37 -24 -46 -34 -8 -11 -44 -26 -79 -35 -249 -64
-410 -291 -410 -579 0 -163 74 -475 176 -747 39 -102 48 -138 49 -195 1 -64 6
-80 54 -175 74 -148 192 -322 275 -406 118 -119 260 -200 400 -225 l66 -12 0
-306 c0 -417 15 -478 149 -612 198 -197 518 -198 717 -1 l55 53 52 -6 c169
-21 356 93 418 256 29 78 32 198 5 269 -111 298 -496 357 -689 105 -100 -132
-101 -329 -2 -466 l36 -51 -22 -24 c-13 -14 -48 -37 -78 -52 -48 -23 -68 -27
-136 -26 -58 1 -93 6 -127 22 -59 26 -124 91 -149 147 -21 46 -23 98 -20 511
l1 181 63 11 c204 33 408 181 555 402 35 52 93 155 130 228 64 128 66 134 55
174 -10 38 -8 50 39 172 151 399 214 759 164 945 -54 208 -221 376 -404 409
-36 6 -58 17 -68 31 -39 54 -153 70 -214 29 -51 -35 -73 -71 -78 -131 -5 -65
21 -123 70 -159 26 -18 46 -23 94 -23 54 0 67 4 101 31 39 32 39 32 83 17 186
-63 270 -248 226 -503 -37 -217 -134 -526 -217 -695 -27 -56 -49 -104 -49
-109 0 -4 -23 -54 -51 -110 -133 -263 -300 -423 -488 -466 -121 -28 -283 3
-396 75 -137 88 -290 298 -376 517 -11 28 -28 63 -38 77 -10 14 -41 87 -69
162 -148 397 -199 696 -143 841 27 69 75 132 131 169 53 36 117 56 135 43 62
-46 71 -49 131 -49 70 0 102 17 142 75 44 66 23 186 -41 232 -41 29 -139 36
-182 13z m1586 -2656 c117 -36 184 -172 148 -304 -15 -57 -100 -137 -162 -154
-197 -56 -370 156 -277 339 23 45 76 95 120 114 42 18 118 20 171 5z"/>
<path d="M2795 4186 c-56 -24 -82 -83 -65 -147 18 -67 82 -100 151 -80 98 29
108 181 15 225 -41 19 -61 20 -101 2z"/>
<path d="M6390 6318 l0 -403 390 3 390 2 0 400 0 400 -390 0 -390 0 0 -402z
m580 157 l0 -75 -192 2 -193 3 -3 73 -3 72 196 0 195 0 0 -75z m0 -300 l0 -75
-195 0 -195 0 0 68 c0 38 3 72 7 75 3 4 91 7 195 7 l188 0 0 -75z"/>
<path d="M1585 6271 c-90 -23 -168 -90 -213 -180 -23 -49 -27 -67 -26 -146 0
-108 24 -173 104 -290 78 -111 188 -210 411 -367 l65 -46 129 91 c147 105 292
242 356 337 126 189 126 391 -2 518 -61 61 -120 86 -209 86 -90 0 -163 -29
-233 -93 l-44 -40 -39 40 c-72 73 -207 114 -299 90z"/>
<path d="M6200 5685 l0 -95 535 0 535 0 0 95 0 95 -535 0 -535 0 0 -95z"/>
<path d="M6455 5095 l7 -85 -246 0 -246 0 0 -172 -1 -173 -38 90 c-21 50 -45
104 -53 122 l-14 32 -72 -33 c-40 -18 -75 -36 -78 -39 -5 -4 100 -301 111
-315 2 -2 33 11 70 27 37 17 70 31 72 31 2 0 2 -48 1 -107 l-3 -107 -40 -23
c-22 -12 -83 -41 -135 -64 -52 -23 -96 -42 -97 -43 -5 -4 65 -181 71 -179 3 2
42 21 85 43 l80 40 -16 -53 c-22 -76 -80 -181 -131 -238 l-44 -50 70 -71 c81
-81 75 -82 149 14 90 117 155 285 189 483 9 55 17 191 21 348 l6 257 513 0
514 0 0 90 0 90 -272 0 -273 0 5 85 5 85 -108 0 -109 0 7 -85z"/>
<path d="M8340 5075 l0 -85 -171 0 c-158 0 -170 1 -165 18 3 12 -9 28 -44 55
l-48 37 -221 0 -221 0 0 -730 0 -730 95 0 95 0 2 248 3 247 25 -74 25 -73 65
4 c129 10 188 66 212 204 l12 74 88 0 c102 0 99 4 73 -108 -33 -137 -116 -248
-235 -311 -55 -29 -60 -35 -48 -50 7 -10 33 -45 58 -79 25 -33 48 -61 53 -61
21 -2 142 87 192 140 96 104 148 220 175 392 l13 77 48 0 49 0 0 -217 c0 -126
5 -235 11 -258 25 -90 95 -121 260 -113 112 5 154 23 176 75 15 36 29 114 35
187 l3 39 -90 28 c-49 15 -90 27 -91 26 -1 -1 -5 -40 -10 -87 l-9 -85 -43 -6
c-28 -3 -45 -2 -48 5 -3 7 -3 99 -2 206 l3 195 143 3 142 3 0 89 0 90 -486 0
-486 0 6 -47 6 -48 -24 65 c-14 35 -43 90 -65 122 -37 51 -40 60 -30 85 6 15
33 91 60 168 l48 140 1 -132 0 -132 83 -3 82 -3 3 -57 3 -58 304 0 305 0 0 60
0 60 80 0 80 0 0 160 0 160 -195 0 -195 0 6 85 7 85 -102 0 -101 0 0 -85z
m-607 -325 l-54 -171 30 -38 c45 -57 88 -142 101 -204 25 -109 -10 -167 -101
-167 l-49 0 0 375 0 375 64 0 64 0 -55 -170z m1007 20 l0 -60 -285 0 -285 0 0
60 0 60 285 0 285 0 0 -60z"/>
<path d="M4070 4486 l0 -603 -37 -7 c-21 -3 -51 -6 -68 -6 -54 -1 -56 -8 -30
-98 30 -101 28 -99 62 -95 277 31 736 112 735 128 0 6 -3 47 -7 92 -6 78 -8
83 -28 78 -24 -6 -407 -65 -419 -65 -5 0 -8 74 -8 165 l0 165 221 -2 222 -3
18 -65 c44 -162 138 -332 227 -411 26 -23 76 -56 112 -73 55 -26 77 -30 140
-30 142 0 194 56 223 237 l14 85 -86 33 c-47 19 -88 35 -91 37 -3 1 -11 -34
-18 -78 -13 -89 -25 -120 -48 -120 -34 0 -88 36 -127 84 -40 51 -129 225 -143
279 l-6 28 241 -3 241 -3 0 88 0 87 -265 0 -264 0 -6 33 c-3 17 -9 53 -14 80
l-8 47 223 0 224 0 0 260 0 260 -615 0 -615 0 0 -604z m1030 344 l0 -80 -415
0 -415 0 0 80 0 80 415 0 415 0 0 -80z m-436 -321 c11 -110 33 -99 -194 -99
l-200 0 0 80 0 80 194 0 193 0 7 -61z"/>
<path d="M6190 4655 l0 -85 200 0 200 0 0 -55 0 -55 -190 0 -190 0 0 -410 0
-410 95 0 95 0 0 168 1 167 47 -53 48 -53 54 40 c49 35 110 104 137 154 8 16
20 7 91 -68 46 -47 84 -85 87 -85 2 0 29 20 60 45 l56 46 -3 -78 -3 -78 -81
-3 -80 -3 25 -91 26 -91 93 6 c103 6 152 25 186 71 20 26 21 42 24 377 l3 349
-201 0 -200 0 0 55 0 55 215 0 215 0 0 85 0 85 -505 0 -505 0 0 -85z m386
-392 c-15 -62 -68 -153 -113 -192 -25 -23 -50 -41 -54 -41 -5 0 -9 59 -9 130
l0 130 91 0 91 0 -6 -27z m404 -94 l0 -120 -27 19 c-16 11 -67 54 -115 97 -65
57 -88 83 -88 101 l0 24 115 0 115 0 0 -121z"/>
</g>
</svg>
